<svg width="64" height="64" viewBox="0 0 64 64" fill="none" xmlns="http://www.w3.org/2000/svg">
<rect width="64" height="64" rx="32" fill="#0B0B0B" fill-opacity="0.8"/>
<path d="M27.25 32.0001L30.4166 35.1667L36.75 28.8334M16.1666 27.2501C17.4264 27.2501 18.6346 27.7505 19.5254 28.6413C20.4162 29.5321 20.9166 30.7403 20.9166 32.0001C20.9166 33.2599 20.4162 34.468 19.5254 35.3588C18.6346 36.2496 17.4264 36.7501 16.1666 36.7501V39.9167C16.1666 40.7566 16.5003 41.5621 17.0941 42.1559C17.688 42.7498 18.4934 43.0834 19.3333 43.0834H44.6666C45.5065 43.0834 46.3119 42.7498 46.9058 42.1559C47.4997 41.5621 47.8333 40.7566 47.8333 39.9167V36.7501C46.5735 36.7501 45.3653 36.2496 44.4745 35.3588C43.5837 34.468 43.0833 33.2599 43.0833 32.0001C43.0833 30.7403 43.5837 29.5321 44.4745 28.6413C45.3653 27.7505 46.5735 27.2501 47.8333 27.2501V24.0834C47.8333 23.2436 47.4997 22.4381 46.9058 21.8442C46.3119 21.2504 45.5065 20.9167 44.6666 20.9167H19.3333C18.4934 20.9167 17.688 21.2504 17.0941 21.8442C16.5003 22.4381 16.1666 23.2436 16.1666 24.0834V27.2501Z" stroke="white" stroke-width="2" stroke-linecap="round" stroke-linejoin="round"/>
</svg>
